<svg id="Capa_1" enable-background="new 0 0 512 512" height="512" viewBox="0 0 512 512" width="512" xmlns="http://www.w3.org/2000/svg"><g><path d="m306.365 425.399h-100.73l-11.045 48.92h-83.337v30h289.494v-30h-83.337z"/><path d="m0 365.399c0 16.568 13.431 30 30 30h452c16.569 0 30-13.432 30-30v-39.979h-512z"/><path d="m482 7.681h-452c-16.569 0-30 13.431-30 30v257.739h512v-257.739c0-16.568-13.431-30-30-30zm-343.362 194.406 107.287-107.286 21.213 21.213-107.287 107.286zm127.437 21.213-21.213-21.213 107.287-107.286 21.213 21.213z"/></g></svg>
